<svg xmlns="http://www.w3.org/2000/svg" viewBox="0 0 75.533 77.589">
  <defs>
    <style>
      .cls-1 {
        fill: #f2f2f2;
        stroke: rgba(232,232,232,0.25);
        stroke-width: 10px;
      }

      .cls-2 {
        fill: #938af3;
      }
    </style>
  </defs>
  <g id="youchat_logo" data-name="logo - YouChat" transform="translate(-168.587 -488.196)">
    <path data-name="Union 5" class="cls-1" d="M12.656,62.267C-1.59,52.291-4.2,31.439,6.824,15.693S38.338-4.731,52.584,5.244c13.4,9.38,16.5,28.377,7.661,43.7l.327-.405,3.061,9.485H53A34.917,34.917,0,0,1,29.53,67.511,29.2,29.2,0,0,1,12.656,62.267Z" transform="translate(173.62 493.274)"/>
    <path data-name="Union 4" class="cls-2" d="M10.79,53.084c-12.145-8.5-14.372-26.281-4.972-39.7S32.683-4.034,44.829,4.471c11.42,8,14.07,24.192,6.531,37.258l.279-.346,2.609,8.086H45.181a29.768,29.768,0,0,1-20.006,8.085A24.892,24.892,0,0,1,10.79,53.084Z" transform="translate(178.431 498.252)"/>
  </g>
</svg>
