<svg xmlns="http://www.w3.org/2000/svg" viewBox="0 0 398.952 313.124">
  <defs>
    <style>
      .cls-1, .cls-5 {
        fill: none;
      }

      .cls-1, .cls-2 {
        stroke: #707070;
      }

      .cls-1 {
        stroke-linecap: round;
        stroke-width: 10px;
      }

      .cls-2 {
        fill: #707070;
      }

      .cls-3 {
        fill: red;
        stroke-linecap: square;
        stroke-linejoin: round;
      }

      .cls-4, .cls-6 {
        stroke: none;
      }

      .cls-6 {
        fill: #fff;
      }
    </style>
  </defs>
  <g id="Group_5" data-name="Group 5" transform="translate(-875.983 -144.876)">
    <g id="Group_2" data-name="Group 2" transform="translate(-24 -18)">
      <path id="Path_4" data-name="Path 4" class="cls-1" d="M1068.673,432.1s27.006-25.9,62.831,0"/>
      <path id="Path_5" data-name="Path 5" class="cls-1" d="M1025.684,381.945s67.24-61.177,148.258,0"/>
      <path id="Path_6" data-name="Path 6" class="cls-1" d="M984,331.239s105.066-98.1,232.38,0"/>
      <path id="Path_7" data-name="Path 7" class="cls-1" d="M942.461,284.943s148.81-130.622,313.6,0"/>
      <path id="Path_8" data-name="Path 8" class="cls-1" d="M904.983,239.749s179.593-161.654,388.952,0"/>
      <g id="Ellipse_14" data-name="Ellipse 14" class="cls-2" transform="translate(1095 466)">
        <circle class="cls-4" cx="5" cy="5" r="5"/>
        <circle class="cls-5" cx="5" cy="5" r="4.5"/>
      </g>
    </g>
    <g id="Union_1" data-name="Union 1" class="cls-3" transform="translate(1022.109 193.858)">
      <path class="cls-4" d="M 8.750247955322266 107.1421356201172 C 6.184502601623535 107.1421356201172 3.771993637084961 106.1431579589844 1.957157254219055 104.329231262207 C -1.789388179779053 100.5807952880859 -1.789006352424622 94.48566436767578 1.956248164176941 90.74039459228516 L 39.55434036254883 53.14230346679688 L 1.956266403198242 15.54423046112061 C 0.1414481699466705 13.72850227355957 -0.8575154542922974 11.31601142883301 -0.8575154542922974 8.750247955322266 C -0.8575154542922974 6.184520721435547 0.1414481699466705 3.772011756896973 1.955357313156128 1.957175493240356 C 3.772011756896973 0.1414481699466705 6.184520721435547 -0.8575154542922974 8.750247955322266 -0.8575154542922974 C 11.31601142883301 -0.8575154542922974 13.72850227355957 0.1414481699466705 15.54333877563477 1.95537543296814 L 53.14230346679688 39.55434036254883 L 90.58197784423828 2.11466646194458 C 92.39691925048828 0.2997209131717682 94.80984497070313 -0.6997882127761841 97.37628173828125 -0.6997882127761841 C 99.94321441650391 -0.6997882127761841 102.3562088012695 0.3000481724739075 104.1707916259766 2.115539073944092 C 107.9152145385742 5.859957218170166 107.9156112670898 11.95510292053223 104.1707916259766 15.70175743103027 L 66.73026275634766 53.14230346679688 L 104.169921875 90.58197784423828 C 105.9847412109375 92.39768218994141 106.9837188720703 94.81019592285156 106.9837188720703 97.37595367431641 C 106.9837188720703 99.94171905517578 105.9847412109375 102.3542327880859 104.1707916259766 104.1690673828125 C 102.3554458618164 105.9844284057617 99.94274139404297 106.9837188720703 97.37628173828125 106.9837188720703 C 94.810302734375 106.9837188720703 92.39768218994141 105.9847412109375 90.58284759521484 104.1707916259766 L 53.14230346679688 66.73026275634766 L 15.54423046112061 104.3283386230469 C 13.72850227355957 106.1431579589844 11.315993309021 107.1421356201172 8.750247955322266 107.1421356201172 Z"/>
      <path class="cls-6" d="M 8.750262260437012 102.1421279907227 C 9.929466247558594 102.1421279907227 11.10869407653809 101.6923522949219 12.00869369506836 100.7928085327148 L 53.14230728149414 59.65919494628906 L 94.11751556396484 100.6343994140625 C 95.01750946044922 101.5339584350586 96.19696044921875 101.9837341308594 97.37629699707031 101.9837341308594 C 98.55563354492188 101.9837341308594 99.73485565185547 101.5339584350586 100.6343994140625 100.6343994140625 C 102.4335098266602 98.83439636230469 102.4335098266602 95.91751098632813 100.6343994140625 94.11751556396484 L 59.65919494628906 53.14230728149414 L 100.6343994140625 12.1671028137207 C 102.4335098266602 10.36710262298584 102.4335098266602 7.449307441711426 100.6343994140625 5.650193691253662 C 99.73485565185547 4.75019359588623 98.55563354492188 4.300193786621094 97.37629699707031 4.300193786621094 C 96.19696044921875 4.300193786621094 95.01750946044922 4.75019359588623 94.11751556396484 5.650193691253662 L 53.14230728149414 46.62539672851563 L 12.00869369506836 5.491807460784912 C 11.10869407653809 4.592250347137451 9.929471969604492 4.142472267150879 8.750250816345215 4.142472267150879 C 7.571028709411621 4.142472267150879 6.391807079315186 4.592250347137451 5.491807460784912 5.491807460784912 C 3.692693710327148 7.291807174682617 3.692693710327148 10.2086935043335 5.491807460784912 12.00869369506836 L 46.62539672851563 53.14230728149414 L 5.491807460784912 94.27590179443359 C 3.692693710327148 96.07501220703125 3.692693710327148 98.99280548095703 5.491807460784912 100.7928085327148 C 6.391807079315186 101.6923522949219 7.57103443145752 102.1421279907227 8.750262260437012 102.1421279907227 M 8.750262260437012 112.1421279907227 C 4.849443435668945 112.1421279907227 1.181648135185242 110.6233749389648 -1.577465415000916 107.8656692504883 C -7.274351596832275 102.1659698486328 -7.273579120635986 92.89914703369141 -1.579260945320129 87.20482635498047 L 32.4832649230957 53.14230346679688 L -1.579260945320129 19.07976150512695 C -7.272942543029785 13.38326168060303 -7.272942543029785 4.117238998413086 -1.581010937690735 -1.577510952949524 C 1.181648135185242 -4.338783740997314 4.849443435668945 -5.85753345489502 8.750262260437012 -5.85753345489502 C 12.65105724334717 -5.85753345489502 16.3188533782959 -4.338783740997314 19.07796669006348 -1.581056356430054 L 53.14230346679688 32.4832649230957 L 87.04644012451172 -1.42087459564209 C 89.80576324462891 -4.180192947387695 93.47430419921875 -5.699806213378906 97.37630462646484 -5.699806213378906 C 101.2792358398438 -5.699806213378906 104.9481964111328 -4.179556369781494 107.7072601318359 -1.419079065322876 C 113.399787902832 4.273443698883057 113.4005584716797 13.54026222229004 107.7072143554688 19.23642158508301 L 73.80133056640625 53.14230728149414 L 107.7054672241211 87.04644012451172 C 113.3991470336914 92.74294281005859 113.3991470336914 102.0089645385742 107.7072143554688 107.7037200927734 C 104.9466705322266 110.4643325805664 101.2783508300781 111.9837417602539 97.37630462646484 111.9837417602539 C 93.47519683837891 111.9837417602539 89.80725860595703 110.4649429321289 87.04814910888672 107.7071685791016 L 53.14230728149414 73.80133056640625 L 19.07976150512695 107.8638763427734 C 16.3188533782959 110.6233749389648 12.65108013153076 112.1421279907227 8.750262260437012 112.1421279907227 Z"/>
    </g>
  </g>
</svg>
